<svg xmlns="http://www.w3.org/2000/svg" width="45.594" height="45.669" viewBox="0 0 45.594 45.669">
  <g id="Grupo_493" data-name="Grupo 493" transform="translate(-1475.907 -1162.712)">
    <path id="Trazado_616" data-name="Trazado 616" d="M1508.655,1208.381a6.17,6.17,0,0,1-.693-.889q-3.859-7.357-7.691-14.728c-.068-.131-.141-.26-.316-.583a3.4,3.4,0,0,1-.344.556,30.617,30.617,0,0,1-5.289,4.5.761.761,0,0,0-.249.55q-.086,3.545-.128,7.09a1.39,1.39,0,0,1-.453,1.064c-.6.575-1.177,1.177-1.771,1.761a.909.909,0,0,1-1.644-.386q-1.111-3.267-2.21-6.538c-.047-.138-.1-.274-.157-.428-.811.194-1.6.387-2.392.57-.347.08-.7.146-1.048.207a.9.9,0,0,1-1.089-1.112c.212-1.017.459-2.026.691-3.038.026-.113.057-.226.1-.385-.165-.058-.313-.113-.462-.163l-6.455-2.177c-.945-.319-1.112-1.012-.413-1.714.6-.6,1.176-1.223,1.809-1.785a1.544,1.544,0,0,1,.9-.375c2.392-.075,4.786-.1,7.178-.165a.758.758,0,0,0,.547-.248,30.8,30.8,0,0,1,4.53-5.319,3.894,3.894,0,0,1,.483-.327l-3.447-1.8c-.224-.117-.45-.229-.67-.352a.892.892,0,1,1,.811-1.583c1.282.657,2.555,1.329,3.832,2,.693.362.693.363,1.238-.182l7.695-7.7c.113-.113.221-.231.4-.416-.861-.086-1.638-.165-2.416-.24q-4.5-.432-9.008-.861-4.549-.431-9.1-.846a.664.664,0,0,0-.47.144c-.876.847-1.734,1.712-2.634,2.609.139.084.244.156.355.214q1.834.962,3.67,1.921a.864.864,0,0,1,.514.948.8.8,0,0,1-.69.722,1.211,1.211,0,0,1-.678-.12q-2.519-1.286-5.019-2.609a.881.881,0,0,1-.221-1.513c1.275-1.29,2.549-2.582,3.859-3.836a1.354,1.354,0,0,1,.916-.312c1.052.055,2.1.2,3.152.281a.842.842,0,0,0,.577-.195c.619-.578,1.205-1.191,1.806-1.788a2.741,2.741,0,0,1,4.715,2.509,1.234,1.234,0,0,0,0,.152c.89.085,1.786.179,2.684.247.1.008.233-.109.322-.2.594-.583,1.178-1.177,1.769-1.764a2.744,2.744,0,0,1,4.763,2.35l-.036.274c.92.085,1.816.18,2.714.239.125.008.281-.139.389-.248,1.981-1.972,3.952-3.954,5.935-5.924a12.33,12.33,0,0,1,9.283-3.72c.341.007.681.066,1.022.077.728.023,1.271.271,1.391,1.073v3.568a.6.6,0,0,0-.075.154,12.469,12.469,0,0,1-3.672,7.017c-1.679,1.662-3.29,3.4-5.035,4.985a2.525,2.525,0,0,0-.925,2.709,9.865,9.865,0,0,1,.146,1.226l.277-.035a2.743,2.743,0,0,1,2.361,4.74,15.092,15.092,0,0,1-1.2,1.189,1.72,1.72,0,0,0-.718,1.914,12.45,12.45,0,0,1,.187,1.7,1.185,1.185,0,0,0,.153,0,2.74,2.74,0,0,1,2.536,4.684c-.606.613-1.227,1.21-1.819,1.836a.783.783,0,0,0-.2.532c.08,1.036.185,2.07.3,3.1a1.259,1.259,0,0,1-.4,1.12c-1.207,1.188-2.4,2.394-3.6,3.585a6.849,6.849,0,0,1-.623.492Zm-23.477-9.274c.132-.016.191-.017.248-.03a24,24,0,0,0,11.63-6.328q9.864-9.778,19.651-19.635a10.42,10.42,0,0,0,3.094-7.858c-.015-.744-.016-.746-.779-.76a10.582,10.582,0,0,0-7.983,3.228q-9.553,9.554-19.108,19.106a24.773,24.773,0,0,0-5.354,7.872A23.676,23.676,0,0,0,1485.177,1199.107Zm24.011,6.9c.885-.886,1.733-1.716,2.552-2.573a.885.885,0,0,0,.215-.614c-.171-2.042-.366-4.082-.56-6.121q-.615-6.474-1.236-12.948c-.042-.435-.094-.87-.148-1.366-.116.1-.174.14-.225.19q-4.1,4.1-8.2,8.186c-.241.239-.144.4-.031.614q2.207,4.22,4.409,8.443C1507.026,1201.852,1508.088,1203.89,1509.189,1206Zm-24.647-11.115,1.287-2.851c-.2,0-.362,0-.522,0-1.649.03-3.3.1-4.946.071a1.65,1.65,0,0,0-1.559.844Zm4.866,4.868,1.936,5.738a1.623,1.623,0,0,0,.842-1.559c-.047-1.155.033-2.315.05-3.472.01-.65,0-1.3,0-1.985Zm-2.463-28.71c.624.063,1.253.12,1.88.19.548.061.787-.167.742-.724a.923.923,0,0,0-1.452-.694A11.345,11.345,0,0,0,1486.944,1171.046Zm26.317,26.438.993-1.015a2.173,2.173,0,0,0,.18-.2.956.956,0,0,0-.024-1.227.919.919,0,0,0-1.13-.217c-.108.064-.242.218-.235.322C1513.094,1195.885,1513.176,1196.617,1513.262,1197.484Zm-.918-9.61c.424-.407.821-.743,1.164-1.129a.884.884,0,0,0,.006-1.151.9.9,0,0,0-1.114-.289.53.53,0,0,0-.252.393C1512.187,1186.406,1512.27,1187.11,1512.343,1187.874Zm-15.85-15.917,1.859.185c.572.057.814-.216.7-.785a.916.916,0,0,0-1.443-.6A10.51,10.51,0,0,0,1496.493,1171.958Z" fill="#004172"/>
    <path id="Trazado_617" data-name="Trazado 617" d="M1570.834,1343.135a.863.863,0,0,1-.859.889.882.882,0,0,1-.909-.894.905.905,0,0,1,.89-.878A.883.883,0,0,1,1570.834,1343.135Z" transform="translate(-84.817 -163.462)" fill="#004172"/>
    <path id="Trazado_618" data-name="Trazado 618" d="M1710.151,1348.8a4.241,4.241,0,0,1-.464.763q-3.468,3.495-6.959,6.967a.895.895,0,1,1-1.271-1.248q3.49-3.5,6.993-7a.808.808,0,0,1,1.045-.222A3.621,3.621,0,0,1,1710.151,1348.8Z" transform="translate(-205.052 -168.653)" fill="#004172"/>
    <path id="Trazado_619" data-name="Trazado 619" d="M1809.639,1321.807a.891.891,0,1,1,0-1.782.883.883,0,0,1,.889.865A.906.906,0,0,1,1809.639,1321.807Z" transform="translate(-303.033 -143.225)" fill="#004172"/>
  </g>
</svg>
