<svg xmlns="http://www.w3.org/2000/svg" width="34.822" height="34.821" viewBox="0 0 34.822 34.821">
  <g id="Grupo_552" data-name="Grupo 552" transform="translate(-1552.898 -1242.279)">
    <path id="Trazado_672" data-name="Trazado 672" d="M1581.376,1320.55c0,3.312.006,6.624,0,9.936a4.1,4.1,0,0,1-3.281,4.18,4.919,4.919,0,0,1-1.03.1q-9.917.008-19.834,0a4.134,4.134,0,0,1-4.224-3.285,5.05,5.05,0,0,1-.1-1.067q-.009-9.9,0-19.8a4.133,4.133,0,0,1,3.457-4.267,4.717,4.717,0,0,1,.849-.057q9.935,0,19.871,0a4.1,4.1,0,0,1,4.244,3.471,5.476,5.476,0,0,1,.053.923Q1581.379,1315.62,1581.376,1320.55Zm-12.644,1.557h.457c1.421,0,2.842,0,4.263,0a1.566,1.566,0,0,0,1.531-1.121,1.584,1.584,0,0,0-1.6-2.044c-1.408-.012-2.817,0-4.225,0h-.427v-.449c0-1.4.007-2.792,0-4.188a1.587,1.587,0,1,0-3.167.013c0,1.4,0,2.792,0,4.188v.436h-.435c-1.384,0-2.768-.01-4.151.008a2.2,2.2,0,0,0-.858.175,1.541,1.541,0,0,0-.845,1.761,1.577,1.577,0,0,0,1.53,1.223c1.445.011,2.891,0,4.336,0h.423v.332c0,1.482-.009,2.965,0,4.448a1.554,1.554,0,0,0,1.425,1.533,1.538,1.538,0,0,0,1.7-1.307,6.679,6.679,0,0,0,.04-1C1568.734,1324.8,1568.732,1323.476,1568.732,1322.107Z" transform="translate(0 -57.671)" fill="#0091ff"/>
    <path id="Trazado_673" data-name="Trazado 673" d="M1618.17,1245.451a4.112,4.112,0,0,1,2.045-2.662,4.155,4.155,0,0,1,2.064-.507q9.99,0,19.979,0a4.124,4.124,0,0,1,4.261,4.263q.016,9.99,0,19.979a4.121,4.121,0,0,1-2.662,3.95c-.147.056-.3.092-.5.153v-.472q0-9.193,0-18.385a6.214,6.214,0,0,0-5.073-6.2,7,7,0,0,0-1.362-.116q-9.118-.011-18.237,0Z" transform="translate(-58.805)" fill="#0091ff"/>
  </g>
</svg>
