<svg xmlns="http://www.w3.org/2000/svg" width="25.667" height="25.601" viewBox="0 0 25.667 25.601">
  <g id="Grupo_662" data-name="Grupo 662" transform="translate(-1755 -1159.331)">
    <path id="Trazado_703" data-name="Trazado 703" d="M1780.667,1163.967v18.313c-.016.055-.036.109-.048.165a2.966,2.966,0,0,1-2.083,2.352c-.171.058-.351.091-.526.135h-20.353a.625.625,0,0,0-.115-.042,2.973,2.973,0,0,1-1.98-1.219,3.519,3.519,0,0,1-.562-1.391v-18.313c.016-.055.037-.109.048-.166a2.979,2.979,0,0,1,1.748-2.229,3.777,3.777,0,0,1,1.742-.257c.222.005.443,0,.682,0v-1.984h2.009v1.971h13.227v-1.969h2.009v1.984c.434,0,.85-.012,1.266,0a2.971,2.971,0,0,1,2.34,1.209A3.5,3.5,0,0,1,1780.667,1163.967Zm-23.661,4.758v.266q0,6.391,0,12.783a1.027,1.027,0,0,0,1.155,1.156h19.348a1.027,1.027,0,0,0,1.153-1.158q0-6.391,0-12.783v-.265Zm0-2.024h21.649c0-.826.012-1.634,0-2.442a.937.937,0,0,0-.836-.92c-.444-.041-.895-.009-1.37-.009v1.975h-2v-1.971H1761.21v1.968H1759.2v-1.986h-1.053c-.067,0-.134,0-.2,0a.979.979,0,0,0-.934.939C1757,1165.068,1757.009,1165.876,1757.009,1166.7Z" fill="#0091ff"/>
    <path id="Trazado_704" data-name="Trazado 704" d="M1816.083,1342.892h1.974v1.97h-1.974Z" transform="translate(-57.255 -172.059)" fill="#0091ff"/>
    <path id="Trazado_705" data-name="Trazado 705" d="M1879.977,1344.9v-1.97h1.974v1.97Z" transform="translate(-117.146 -172.092)" fill="#0091ff"/>
    <path id="Trazado_706" data-name="Trazado 706" d="M1944.044,1342.791h1.97v1.979h-1.97Z" transform="translate(-177.198 -171.964)" fill="#0091ff"/>
    <path id="Trazado_707" data-name="Trazado 707" d="M2009.987,1345h-1.974v-1.97h1.974Z" transform="translate(-237.158 -172.192)" fill="#0091ff"/>
    <path id="Trazado_708" data-name="Trazado 708" d="M2072.084,1342.891h1.974v1.97h-1.974Z" transform="translate(-297.215 -172.058)" fill="#0091ff"/>
    <path id="Trazado_709" data-name="Trazado 709" d="M1818.025,1406.806v1.971h-1.979v-1.971Z" transform="translate(-57.221 -231.968)" fill="#0091ff"/>
    <path id="Trazado_710" data-name="Trazado 710" d="M1881.986,1408.882h-1.974v-1.97h1.974Z" transform="translate(-117.178 -232.067)" fill="#0091ff"/>
    <path id="Trazado_711" data-name="Trazado 711" d="M1946.092,1406.877v1.97h-1.974v-1.97Z" transform="translate(-177.267 -232.034)" fill="#0091ff"/>
    <path id="Trazado_712" data-name="Trazado 712" d="M2008.083,1406.772h1.974v1.97h-1.974Z" transform="translate(-237.224 -231.936)" fill="#0091ff"/>
    <path id="Trazado_713" data-name="Trazado 713" d="M2074.035,1406.817v1.969h-1.977v-1.969Z" transform="translate(-297.19 -231.978)" fill="#0091ff"/>
    <path id="Trazado_714" data-name="Trazado 714" d="M1817.972,1472.745H1816v-1.97h1.976Z" transform="translate(-57.174 -291.928)" fill="#0091ff"/>
    <path id="Trazado_715" data-name="Trazado 715" d="M1880.086,1470.648h1.974v1.97h-1.974Z" transform="translate(-117.248 -291.809)" fill="#0091ff"/>
    <path id="Trazado_716" data-name="Trazado 716" d="M1945.984,1472.759h-1.974v-1.97h1.974Z" transform="translate(-177.166 -291.941)" fill="#0091ff"/>
    <path id="Trazado_717" data-name="Trazado 717" d="M2007.982,1472.653v-1.971h1.974v1.971Z" transform="translate(-237.13 -291.841)" fill="#0091ff"/>
  </g>
</svg>
