<svg xmlns="http://www.w3.org/2000/svg" width="28.628" height="35.529" viewBox="0 0 28.628 35.529">
  <g id="Grupo_534" data-name="Grupo 534" transform="translate(-1574.234 -1226.384)">
    <path id="Trazado_650" data-name="Trazado 650" d="M1587.922,1261.913a13.094,13.094,0,0,1-1.7-.551,5.142,5.142,0,0,1-2.836-3.4.339.339,0,0,0-.4-.3q-3.26.014-6.521,0a2.124,2.124,0,0,1-2.207-2.457,2.631,2.631,0,0,1,.378-.953c.747-1.222,1.491-2.448,2.295-3.633a5.366,5.366,0,0,0,.886-3.625c-.128-1.391-.3-2.779-.486-4.164a11.343,11.343,0,0,1,4.1-10.852,10.288,10.288,0,0,1,3.306-1.856.423.423,0,0,0,.348-.453,3.467,3.467,0,0,1,6.86-.515,1.05,1.05,0,0,1,.054.341c-.066.419.167.542.516.687a11.217,11.217,0,0,1,7.352,9.778,17.984,17.984,0,0,1-.247,3.935c-.121,1.056-.272,2.109-.354,3.168a5.353,5.353,0,0,0,.875,3.526c.827,1.225,1.6,2.488,2.372,3.748a2.129,2.129,0,0,1-1.171,3.223,2.991,2.991,0,0,1-.82.1q-3.208.012-6.417,0a.345.345,0,0,0-.4.3,5.276,5.276,0,0,1-4.377,3.892.851.851,0,0,0-.156.061Zm-11.4-6.491h24.04c-.078-.133-.132-.232-.193-.328-.672-1.065-1.31-2.153-2.024-3.189a7.573,7.573,0,0,1-1.279-5.1c.1-1.185.264-2.364.4-3.546a14.086,14.086,0,0,0,.121-3.8,9.138,9.138,0,0,0-16.5-3.919,9.505,9.505,0,0,0-1.536,7.162c.205,1.417.373,2.841.483,4.268a7.3,7.3,0,0,1-1.211,4.811c-.643.945-1.227,1.93-1.838,2.9C1576.838,1254.912,1576.693,1255.146,1576.522,1255.421Zm9.131,2.256a3.072,3.072,0,0,0,3.061,2.01,3.015,3.015,0,0,0,2.71-2.01Zm4.047-28.2a1.166,1.166,0,0,0-1.195-.87,1.132,1.132,0,0,0-1.1.87Z" transform="translate(0 0)" fill="#9fbace"/>
  </g>
</svg>
