<svg xmlns="http://www.w3.org/2000/svg" width="53.704" height="72.64" viewBox="0 0 53.704 72.64">
  <g id="Grupo_658" data-name="Grupo 658" transform="translate(-1593.403 -1232.646)">
    <path id="Trazado_702" data-name="Trazado 702" d="M1643.62,1305.286h-46.728c-2.518-.957-3.481-2.16-3.482-4.46q-.012-16.836,0-33.673a4.186,4.186,0,0,1,4.457-4.424c.863,0,1.727,0,2.655,0,0-.417,0-.744,0-1.071.057-3.943-.248-7.933.25-11.819,1.01-7.87,5.535-13.211,12.92-16.026a36.62,36.62,0,0,1,5-1.166h3.115a4.8,4.8,0,0,0,.547.121,19.7,19.7,0,0,1,17.6,19.037c.082,3.353.025,6.71.032,10.066,0,.272,0,.545,0,.858h2.442c2.973,0,4.673,1.679,4.674,4.637q.006,16.659-.007,33.318a6.025,6.025,0,0,1-.2,1.607A4.3,4.3,0,0,1,1643.62,1305.286Zm-10.7-42.593c.017-.215.043-.4.043-.581,0-3.213.012-6.427-.007-9.64a12.272,12.272,0,0,0-.185-2.114,12.659,12.659,0,0,0-25.095.735c-.214,3.792-.089,7.6-.111,11.406a.586.586,0,0,0,.078.194Zm-8.255,30.017c-.039-.254-.059-.438-.1-.618-.435-2.077-.862-4.156-1.317-6.229a.961.961,0,0,1,.374-1.132,5.011,5.011,0,0,0,1.961-4.342,5.338,5.338,0,1,0-8.589,4.474.935.935,0,0,1,.279.738c-.178,1.069-.427,2.126-.647,3.188-.266,1.287-.53,2.574-.807,3.92Z" transform="translate(0)" fill="red"/>
  </g>
</svg>
