<svg xmlns="http://www.w3.org/2000/svg" width="29.334" height="36.613" viewBox="0 0 29.334 36.613">
  <g id="Grupo_694" data-name="Grupo 694" transform="translate(-1600.702 -1258.223)">
    <path id="Trazado_741" data-name="Trazado 741" d="M1620.859,1272.863c0-1.575-.014-3.088,0-4.6a7,7,0,0,0-.586-3.339,5.49,5.49,0,0,0-10.4,2.368c-.008.658.012,1.316-.007,1.973a1.822,1.822,0,0,1-1.709,1.771,1.753,1.753,0,0,1-1.9-1.542,10.775,10.775,0,0,1,1.466-7.16,9.208,9.208,0,0,1,9.736-3.868,9.054,9.054,0,0,1,6.969,7.75c.164,1.572.078,3.17.1,4.757.008.612,0,1.225,0,1.841.5.085.967.13,1.416.25a5.439,5.439,0,0,1,4.067,5.271q.045,5.512,0,11.025a5.43,5.43,0,0,1-5.5,5.461q-9.14.029-18.279,0a5.445,5.445,0,0,1-5.513-5.494q-.037-5.47,0-10.939a5.483,5.483,0,0,1,5.627-5.524q6.951-.012,13.9,0Zm-5.472,9.16c-.615,0-1.229-.008-1.844,0a1.831,1.831,0,0,0-1.839,1.731,1.758,1.758,0,0,0,1.606,1.891,38.583,38.583,0,0,0,4.111,0,1.758,1.758,0,0,0,1.605-1.89,1.832,1.832,0,0,0-1.839-1.731C1616.589,1282.014,1615.988,1282.022,1615.388,1282.022Z" transform="translate(0)" fill="#e4e8eb"/>
  </g>
</svg>
