<svg xmlns="http://www.w3.org/2000/svg" width="47.443" height="33.49" viewBox="0 0 47.443 33.49">
  <g id="Grupo_692" data-name="Grupo 692" transform="translate(-1537 -1283.209)">
    <path id="Trazado_730" data-name="Trazado 730" d="M1537,1298.415c.123-.9.214-1.8.373-2.7a23.317,23.317,0,0,1,6.326-12.321c.073-.076.155-.143.206-.19l1.935,1.955a20.968,20.968,0,0,0,.027,29.492l-2.044,2.043a2.958,2.958,0,0,0-.32-.5,23.426,23.426,0,0,1-6.424-14.418,3.606,3.606,0,0,0-.079-.4Z" transform="translate(0)" fill="#0091ff"/>
    <path id="Trazado_731" data-name="Trazado 731" d="M1687.251,1370.774a5.849,5.849,0,1,1-5.866,5.841A5.834,5.834,0,0,1,1687.251,1370.774Z" transform="translate(-126.512 -76.725)" fill="#0091ff"/>
    <path id="Trazado_732" data-name="Trazado 732" d="M1848.608,1285.154l1.917-1.914c9.043,8.525,9.486,24.226.026,33.364l-1.92-1.914A20.979,20.979,0,0,0,1848.608,1285.154Z" transform="translate(-273.034 -0.027)" fill="#0091ff"/>
    <path id="Trazado_733" data-name="Trazado 733" d="M1592.245,1340.284l-1.929,1.924a17.6,17.6,0,0,1-.04-24.966l1.935,1.943a15,15,0,0,0,.035,21.1Z" transform="translate(-42.149 -29.82)" fill="#0091ff"/>
    <path id="Trazado_734" data-name="Trazado 734" d="M1816.688,1342.406l-1.93-1.9a15.079,15.079,0,0,0,.025-21.113l1.921-1.909A17.6,17.6,0,0,1,1816.688,1342.406Z" transform="translate(-243.374 -30.032)" fill="#0091ff"/>
    <path id="Trazado_735" data-name="Trazado 735" d="M1638.605,1365.767l-1.918,1.919a11.654,11.654,0,0,1-.018-16.549l1.906,1.93A9.094,9.094,0,0,0,1638.605,1365.767Z" transform="translate(-84.319 -59.519)" fill="#0091ff"/>
    <path id="Trazado_736" data-name="Trazado 736" d="M1780.741,1353.133l1.916-1.922a11.7,11.7,0,0,1,.065,16.518l-1.94-1.938A9.088,9.088,0,0,0,1780.741,1353.133Z" transform="translate(-213.568 -59.584)" fill="#0091ff"/>
  </g>
</svg>
