<svg xmlns="http://www.w3.org/2000/svg" width="116.956" height="82.56" viewBox="0 0 116.956 82.56">
  <g id="Grupo_611" data-name="Grupo 611" transform="translate(-1537 -1283.209)">
    <path id="Trazado_689" data-name="Trazado 689" d="M1537,1320.694c.3-2.216.526-4.446.92-6.645a57.48,57.48,0,0,1,15.594-30.372c.181-.187.383-.354.507-.467l4.771,4.82c-9.7,10.031-14.909,22.151-14.909,36.319s5.205,26.289,14.975,36.384l-5.039,5.037a7.307,7.307,0,0,0-.788-1.227A57.747,57.747,0,0,1,1537.194,1329,9.006,9.006,0,0,0,1537,1328Z" fill="#e4e8eb"/>
    <path id="Trazado_690" data-name="Trazado 690" d="M1848.611,1287.96l4.725-4.719c22.306,21.036,23.369,59.742.062,82.249l-4.735-4.718C1868.89,1340.652,1868.343,1307.645,1848.611,1287.96Z" transform="translate(-216.518 -0.022)" fill="#e4e8eb"/>
    <path id="Trazado_691" data-name="Trazado 691" d="M1695.746,1399.609a14.418,14.418,0,1,1,14.471-14.393A14.4,14.4,0,0,1,1695.746,1399.609Zm7.615-14.466a7.561,7.561,0,1,0-7.57,7.609A7.527,7.527,0,0,0,1703.361,1385.143Z" transform="translate(-100.323 -60.843)" fill="#e4e8eb"/>
    <path id="Trazado_692" data-name="Trazado 692" d="M1602.658,1373.933l-4.774,4.774c-17.2-16.662-16.894-45.307.021-61.555l4.763,4.76a36.979,36.979,0,0,0-.01,52.021Z" transform="translate(-33.421 -23.585)" fill="#e4e8eb"/>
    <path id="Trazado_693" data-name="Trazado 693" d="M1814.126,1321.6c1.539-1.515,2.974-2.929,4.412-4.34.133-.13.285-.24.426-.356,17.145,16.556,17.117,45.195.034,61.677l-4.745-4.782a36.342,36.342,0,0,0,10.711-25.987C1824.974,1337.692,1821.273,1328.991,1814.126,1321.6Z" transform="translate(-192.557 -23.414)" fill="#e4e8eb"/>
    <path id="Trazado_694" data-name="Trazado 694" d="M1646.432,1387.257l-4.723,4.74c-11.239-10.541-11.4-30.01-.015-40.763l4.724,4.735A22.41,22.41,0,0,0,1646.432,1387.257Z" transform="translate(-66.855 -47.266)" fill="#e4e8eb"/>
    <path id="Trazado_695" data-name="Trazado 695" d="M1785.467,1392.147l-4.778-4.786a22.328,22.328,0,0,0,.023-31.176l4.761-4.747C1796.249,1361.385,1797.216,1380.788,1785.467,1392.147Z" transform="translate(-169.324 -47.409)" fill="#e4e8eb"/>
  </g>
</svg>
