<svg xmlns="http://www.w3.org/2000/svg" width="91" height="91" viewBox="0 0 91 91">
  <path id="Trazado_729" data-name="Trazado 729" d="M1564,1205.546v3.2c-.069.464-.155.925-.2,1.391-.144,1.351-.2,2.714-.42,4.053a45.551,45.551,0,0,1-39.942,38.081c-1.111.128-2.223.25-3.334.376h-3.2c-1.377-.141-2.76-.244-4.131-.43a45.606,45.606,0,0,1-39.4-40.137q-.185-1.578-.373-3.155v-3.555c.068-.4.15-.807.2-1.213.268-2.047.387-4.126.817-6.138a44.87,44.87,0,0,1,18.905-28.363,43.654,43.654,0,0,1,20.55-7.628c1.142-.123,2.283-.253,3.424-.38h3.2c.405.066.809.153,1.217.194,1.41.145,2.835.192,4.231.423a45.575,45.575,0,0,1,38.078,39.95Q1563.812,1203.88,1564,1205.546Zm-50.923,1.646c-.749.716-1.443,1.355-2.111,2.02q-4.593,4.58-9.172,9.173a3.871,3.871,0,0,0,2.161,6.672,3.9,3.9,0,0,0,3.425-1.311q5.208-5.222,10.429-10.429c.222-.222.458-.432.814-.766a9.3,9.3,0,0,0,.657.84q5.207,5.223,10.428,10.43a3.809,3.809,0,0,0,4.935.663,3.848,3.848,0,0,0,.541-6.118c-3.48-3.515-6.989-7-10.485-10.5-.225-.225-.435-.465-.792-.848.57-.5,1.127-.942,1.628-1.44q4.818-4.794,9.613-9.612a3.873,3.873,0,1,0-5.462-5.475q-5.259,5.233-10.5,10.488c-.222.222-.459.429-.737.688-2.088-2.1-4.109-4.143-6.135-6.178-1.693-1.7-3.383-3.4-5.093-5.085a3.7,3.7,0,0,0-3.988-1.009,3.742,3.742,0,0,0-2.645,3.162,3.862,3.862,0,0,0,1.279,3.433C1505.56,1199.674,1509.244,1203.36,1513.076,1207.192Z" transform="translate(-1473 -1161.646)" fill="red"/>
</svg>
