<svg xmlns="http://www.w3.org/2000/svg" width="214.319" height="104.753" viewBox="0 0 214.319 104.753">
  <g id="Grupo_317" data-name="Grupo 317" transform="translate(-853.515 -446.463)">
    <path id="Trazado_1" data-name="Trazado 1" d="M870.506,600.452H860.139v3.84h10.743a4.544,4.544,0,0,1-4.544,4.543h-6.2v8.159h-6.624v-16.51a4.736,4.736,0,0,1,4.736-4.735h16.8v.16a4.543,4.543,0,0,1-4.543,4.543" transform="translate(0 -65.778)" fill="#004172"/>
    <path id="Trazado_2" data-name="Trazado 2" d="M915.978,616.994h-6.752l-2.048-3.935H893.8l-1.952,3.935h-6.943l10.815-21.246h9.247Zm-10.816-8.512-4.7-8.863-4.609,8.863Z" transform="translate(-13.833 -65.778)" fill="#004172"/>
    <path id="Trazado_3" data-name="Trazado 3" d="M971.165,602.357a5.085,5.085,0,0,1-1.408,3.594,6.749,6.749,0,0,1-4.416,1.956,6.3,6.3,0,0,1,4.1,1.12,3.894,3.894,0,0,1,1.344,3.168v4.8h-6.688v-4.128a1.915,1.915,0,0,0-1.152-1.9,8.559,8.559,0,0,0-3.424-.528H951.2v6.559h-6.464V595.748H960.51q5.79,0,8.223,1.428t2.432,5.181m-6.816.8a2.494,2.494,0,0,0-.608-2q-.9-.707-3.84-.708h-8.7v5.408h8.319a9.276,9.276,0,0,0,3.792-.531,2.2,2.2,0,0,0,1.04-2.173" transform="translate(-40.193 -65.778)" fill="#004172"/>
    <path id="Trazado_4" data-name="Trazado 4" d="M1019.573,616.994H998.167V595.748h6.687v16.511h14.719Z" transform="translate(-63.737 -65.778)" fill="#004172"/>
    <path id="Trazado_5" data-name="Trazado 5" d="M1062.8,616.994h-22.238V600.484a4.735,4.735,0,0,1,4.736-4.736h17.343v4.7h-15.678V604.1H1061.9v4.1h-14.942v4.288H1062.8Z" transform="translate(-82.415 -65.778)" fill="#004172"/>
    <path id="Trazado_6" data-name="Trazado 6" d="M1104.8,600.484h-4.64v16.511h-6.688V600.484h-9.215a4.736,4.736,0,0,1,4.736-4.736h20.543a4.735,4.735,0,0,1-4.736,4.736" transform="translate(-101.671 -65.778)" fill="#004172"/>
    <path id="Trazado_7" data-name="Trazado 7" d="M1157.854,616.994H1131.9v-3.815l16.958-12.728h-16.254a4.7,4.7,0,0,1,4.7-4.7h20.318v4.52l-17.15,12.79h17.15Z" transform="translate(-122.664 -65.778)" fill="#004172"/>
    <path id="Trazado_8" data-name="Trazado 8" d="M1212.179,616.994h-6.751l-2.048-3.935H1190l-1.952,3.935h-6.943l10.815-21.246h9.247Zm-10.815-8.512-4.7-8.863-4.608,8.863Z" transform="translate(-144.345 -65.778)" fill="#004172"/>
    <path id="Trazado_9" data-name="Trazado 9" d="M1023.3,468.424l52.217-21.961v6.75a10.563,10.563,0,0,1-6.48,9.538l-52.218,21.961v-6.751a10.564,10.564,0,0,1,6.481-9.537" transform="translate(-71.957)" fill="#ff7100"/>
    <path id="Trazado_10" data-name="Trazado 10" d="M1023.3,506l33.149-13.941v6.751a10.562,10.562,0,0,1-6.48,9.537l-33.15,13.941v-6.751A10.564,10.564,0,0,1,1023.3,506" transform="translate(-71.957 -20.092)" fill="#ff7100"/>
    <path id="Trazado_11" data-name="Trazado 11" d="M1023.3,543.461l14.27-6v6.75a10.563,10.563,0,0,1-6.48,9.538l-14.271,6V553a10.564,10.564,0,0,1,6.481-9.537" transform="translate(-71.957 -40.095)" fill="#ff7100"/>
  </g>
</svg>
