<svg xmlns="http://www.w3.org/2000/svg" width="55" height="54.893" viewBox="0 0 55 54.893">
  <g id="Grupo_489" data-name="Grupo 489" transform="translate(-1524 -1213.445)">
    <path id="Trazado_611" data-name="Trazado 611" d="M1524,1267.052a5.537,5.537,0,0,1,1.963-1.852,8.48,8.48,0,0,1,8.235-1.4c-.126-.445-.23-.828-.344-1.21q-2.545-8.537-5.092-17.074c-.275-.924-.142-1.258.7-1.77,1.483-.9,2.961-1.8,4.456-2.683a.716.716,0,0,0,.4-.722c-.014-2.769-.009-5.538-.007-8.307,0-1.059.366-1.428,1.413-1.432.586,0,1.172,0,1.809,0,0-.993,0-1.935,0-2.877,0-1.044.374-1.409,1.434-1.411.981,0,1.963,0,3.023,0,0-.749,0-1.455,0-2.161,0-.286-.008-.572,0-.858a1.132,1.132,0,0,1,1.306-1.268c1.468-.007,2.936,0,4.4,0h.573v-.627q0-3.269,0-6.539c0-1.044.374-1.409,1.434-1.411q1.8,0,3.6,0c1.046,0,1.411.373,1.411,1.433,0,2.356,0,4.712,0,7.143h1.187q1.826,0,3.652,0c1.079,0,1.44.363,1.446,1.453,0,.925,0,1.85,0,2.835h2.133c2.3,0,2.325.022,2.325,2.345v1.943c.63,0,1.231,0,1.832,0,1.015,0,1.389.38,1.39,1.4,0,2.751.009,5.5-.009,8.254a.833.833,0,0,0,.465.848c1.468.854,2.913,1.746,4.366,2.625.9.544,1.006.831.7,1.857q-2.67,8.974-5.339,17.95c-.035.117-.062.237-.1.4a5.9,5.9,0,0,0,5.935.15,16.117,16.117,0,0,0,2.183-1.635c.913-.758,1.426-.729,2.116.2v.536a5.944,5.944,0,0,1-.653.823c-.519.464-1.065.9-1.625,1.315a8,8,0,0,1-5.006,1.619,10.063,10.063,0,0,1-4.147-1.152,6.51,6.51,0,0,0-5.937-.249c-.688.34-1.373.689-2.059,1.035a7.943,7.943,0,0,1-6.34.548,29.715,29.715,0,0,1-3.422-1.526,5.929,5.929,0,0,0-5.082-.179c-1.073.441-2.109.969-3.174,1.429a7.362,7.362,0,0,1-3.945.466,14.218,14.218,0,0,1-4.1-1.377,5.362,5.362,0,0,0-4.374-.059,16.715,16.715,0,0,0-3.743,2.455H1524Zm48.041-21.7-19.467-11.769v30.458a.537.537,0,0,0,0,.212c.068.142.128.344.246.4a6.3,6.3,0,0,0,5.343.221c.522-.23,1.035-.487,1.536-.761a9.528,9.528,0,0,1,7.069-1.068Zm-41.066-.009c.03.124.047.21.071.293q.99,3.334,1.981,6.668,1.831,6.155,3.654,12.311c.105.357.276.574.642.579a8.708,8.708,0,0,0,2.334-.042,33,33,0,0,0,3.109-1.268,20.84,20.84,0,0,1,2.924-1,8.464,8.464,0,0,1,4.695.548V1233.6Zm8.754-16.872v2.1h23.544v-2.1Zm7.862,4.316H1536.5v6.71Zm18.907,6.706v-6.707h-11.092Zm-7.659-15.276h-14.66v2.055h14.66Zm-8.379-8.609v6.38h2.069v-6.38Z" transform="translate(0)" fill="#fff"/>
    <path id="Trazado_612" data-name="Trazado 612" d="M1790.691,1421.606a1.046,1.046,0,0,1-1.344,1.075,1.66,1.66,0,0,1-.392-.168q-3.336-2.049-6.666-4.108a1.07,1.07,0,0,1-.58-1.347,1.019,1.019,0,0,1,1.334-.641,2.541,2.541,0,0,1,.478.236q3.222,1.978,6.441,3.961C1790.38,1420.871,1790.713,1421.171,1790.691,1421.606Z" transform="translate(-223.044 -175.662)" fill="#fff"/>
    <path id="Trazado_613" data-name="Trazado 613" d="M1756.5,1400.569a1.075,1.075,0,0,1-1.028,1.038,1.122,1.122,0,0,1-1.095-1.036,1.062,1.062,0,1,1,2.123,0Z" transform="translate(-199.445 -161.05)" fill="#fff"/>
    <path id="Trazado_614" data-name="Trazado 614" d="M1621.163,1416.036c.624.029.96.225,1.135.651a.993.993,0,0,1-.23,1.133,1.733,1.733,0,0,1-.333.267q-3.287,2.074-6.579,4.139a1.508,1.508,0,0,1-.484.219,1.013,1.013,0,0,1-1.156-.476,1,1,0,0,1,.12-1.24,2.387,2.387,0,0,1,.5-.392q3.15-1.989,6.307-3.966A5.378,5.378,0,0,1,1621.163,1416.036Z" transform="translate(-77.356 -175.387)" fill="#fff"/>
    <path id="Trazado_615" data-name="Trazado 615" d="M1692.954,1400.943a1.065,1.065,0,0,1,0-2.13,1.152,1.152,0,0,1,1.073,1.073A1.1,1.1,0,0,1,1692.954,1400.943Z" transform="translate(-145.352 -160.476)" fill="#fff"/>
  </g>
</svg>
