<svg xmlns="http://www.w3.org/2000/svg" width="34.457" height="24.323" viewBox="0 0 34.457 24.323">
  <g id="Grupo_610" data-name="Grupo 610" transform="translate(-1537 -1283.209)">
    <path id="Trazado_689" data-name="Trazado 689" d="M1537,1294.253c.089-.653.155-1.31.271-1.958a16.936,16.936,0,0,1,4.594-8.948c.053-.055.113-.1.149-.138l1.405,1.42a15.229,15.229,0,0,0,.019,21.42l-1.485,1.484a2.146,2.146,0,0,0-.232-.362,17.013,17.013,0,0,1-4.666-10.472,2.649,2.649,0,0,0-.057-.293Z" transform="translate(0)" fill="#fff"/>
    <path id="Trazado_690" data-name="Trazado 690" d="M1848.611,1284.631l1.392-1.39a17.082,17.082,0,0,1,.018,24.232l-1.395-1.39A15.237,15.237,0,0,0,1848.611,1284.631Z" transform="translate(-283.595 -0.029)" fill="#fff"/>
    <path id="Trazado_691" data-name="Trazado 691" d="M1685.616,1379.269a4.248,4.248,0,1,1,4.263-4.24A4.243,4.243,0,0,1,1685.616,1379.269Zm2.244-4.262a2.227,2.227,0,1,0-2.23,2.242A2.218,2.218,0,0,0,1687.859,1375.007Z" transform="translate(-131.404 -79.692)" fill="#fff"/>
    <path id="Trazado_692" data-name="Trazado 692" d="M1590.272,1333.881l-1.407,1.407a12.791,12.791,0,0,1,.006-18.135l1.4,1.4a10.895,10.895,0,0,0,0,15.326Z" transform="translate(-43.775 -30.891)" fill="#fff"/>
    <path id="Trazado_693" data-name="Trazado 693" d="M1814.126,1318.289c.453-.446.876-.863,1.3-1.279.039-.038.084-.071.125-.1a12.805,12.805,0,0,1,.01,18.171l-1.4-1.409a10.9,10.9,0,0,0-.037-15.379Z" transform="translate(-252.21 -30.667)" fill="#fff"/>
    <path id="Trazado_694" data-name="Trazado 694" d="M1637.111,1361.847l-1.391,1.4a8.463,8.463,0,0,1,0-12.01l1.392,1.4A6.6,6.6,0,0,0,1637.111,1361.847Z" transform="translate(-87.567 -61.909)" fill="#fff"/>
    <path id="Trazado_695" data-name="Trazado 695" d="M1782.1,1363.432l-1.408-1.41a6.579,6.579,0,0,0,.007-9.185l1.4-1.4A8.466,8.466,0,0,1,1782.1,1363.432Z" transform="translate(-221.78 -62.096)" fill="#fff"/>
  </g>
</svg>
