<svg xmlns="http://www.w3.org/2000/svg" width="26.4" height="32.275" viewBox="0 0 26.4 32.275">
  <g id="Grupo_522" data-name="Grupo 522" transform="translate(-1584.901 -1242.33)">
    <path id="Trazado_643" data-name="Trazado 643" d="M1591.5,1246.005c0-.481,0-.925,0-1.368a.734.734,0,0,1,.823-.829c.985-.006,1.971.006,2.956-.011a.594.594,0,0,0,.411-.21,2.921,2.921,0,0,1,4.8,0,.479.479,0,0,0,.455.219q1.444-.011,2.887,0c.6,0,.86.267.865.858,0,.412,0,.825.007,1.237a.47.47,0,0,0,.04.1h.351c1.169,0,2.337,0,3.506,0a2.549,2.549,0,0,1,2.7,2.693q0,11.6,0,23.2a2.565,2.565,0,0,1-2.7,2.7q-10.5.006-21,0a2.568,2.568,0,0,1-2.7-2.7q0-11.6,0-23.2a2.551,2.551,0,0,1,2.689-2.7c1.168,0,2.337,0,3.506,0Zm0,1.461h-3.77c-.984,0-1.368.387-1.368,1.377q0,11.444,0,22.887c0,1.02.372,1.4,1.379,1.4h20.722c.115,0,.229,0,.344-.005a1.057,1.057,0,0,0,.991-.85,2.325,2.325,0,0,0,.04-.477q0-11.495,0-22.99c0-.069,0-.137,0-.206a1.106,1.106,0,0,0-1.167-1.13c-1.226,0-2.451,0-3.677,0-.088,0-.177.008-.293.013,0,.467,0,.911,0,1.355a.743.743,0,0,1-.829.83q-5.773,0-11.547,0a.744.744,0,0,1-.822-.836C1591.5,1248.386,1591.5,1247.942,1591.5,1247.466Zm1.478.713h10.236v-2.913c-1,0-1.97,0-2.943,0a.787.787,0,0,1-.806-.516,1.461,1.461,0,0,0-2.731,0,.788.788,0,0,1-.806.517c-.859-.006-1.718,0-2.577,0h-.373Z" transform="translate(0 0)" fill="#9fbace"/>
    <path id="Trazado_644" data-name="Trazado 644" d="M1637.427,1348.384q0,4.64,0,9.281c0,.761-.225.986-.98.986h-18.561c-.755,0-.979-.224-.979-.986q0-9.281,0-18.561c0-.757.23-.991.98-.991h18.561c.749,0,.979.234.979.991Q1637.427,1343.744,1637.427,1348.384Zm-1.482,8.789v-17.555h-17.557v17.555Z" transform="translate(-29.065 -86.985)" fill="#9fbace"/>
    <path id="Trazado_645" data-name="Trazado 645" d="M1664.832,1391.922a5.858,5.858,0,1,1,5.822,5.858A5.866,5.866,0,0,1,1664.832,1391.922Zm1.46-.04a4.4,4.4,0,1,0,4.387-4.361A4.409,4.409,0,0,0,1666.291,1391.882Z" transform="translate(-72.589 -130.515)" fill="#9fbace"/>
    <path id="Trazado_646" data-name="Trazado 646" d="M1698.84,1428.684c.8-.8,1.557-1.563,2.322-2.316a1.167,1.167,0,0,1,.445-.3.67.67,0,0,1,.785.278.7.7,0,0,1,0,.835,1.346,1.346,0,0,1-.181.205q-1.358,1.36-2.718,2.718a.77.77,0,0,1-1.268-.008c-.43-.427-.861-.854-1.286-1.287a.736.736,0,1,1,1.034-1.035C1698.266,1428.063,1698.541,1428.368,1698.84,1428.684Z" transform="translate(-101.495 -166.831)" fill="#9fbace"/>
  </g>
</svg>
