<svg xmlns="http://www.w3.org/2000/svg" width="33.4" height="33.398" viewBox="0 0 33.4 33.398">
  <g id="Grupo_536" data-name="Grupo 536" transform="translate(-1563.894 -1253.279)">
    <path id="Trazado_655" data-name="Trazado 655" d="M1597.291,1272.93q0,5.084,0,10.168a3.349,3.349,0,0,1-3.581,3.579H1574.74a3.334,3.334,0,0,1-3.55-3.528c0-.278-.081-.378-.354-.453a9.4,9.4,0,0,1,0-18.146c.276-.076.353-.179.351-.455-.011-2.428-.008-4.856-.006-7.284a3.339,3.339,0,0,1,3.518-3.526c4.4,0,8.8.005,13.2,0a3.561,3.561,0,0,1,2.654,1.087q2.822,2.839,5.66,5.661a3.525,3.525,0,0,1,1.075,2.622C1597.285,1266.076,1597.291,1269.5,1597.291,1272.93Zm-24.256,10.121a1.514,1.514,0,0,0,1.6,1.8q9.56,0,19.12,0a1.54,1.54,0,0,0,1.711-1.711q0-9.56,0-19.12v-.419c-1.709,0-3.364,0-5.019,0a3.339,3.339,0,0,1-3.48-3.489c0-1.53,0-3.06,0-4.59v-.421h-.276q-6.051,0-12.1,0a1.509,1.509,0,0,0-1.585,1.6q-.006,3.585,0,7.17c0,.108.014.215.022.32a9.429,9.429,0,1,1,.007,18.85Zm.3-17.017a7.588,7.588,0,1,0,7.565,7.553A7.6,7.6,0,0,0,1573.333,1266.034Zm15.458-10.6v.208c0,1.5,0,3.007,0,4.51a1.521,1.521,0,0,0,1.634,1.631c1.491,0,2.981,0,4.472,0h.254Z" transform="translate(0 0)" fill="#9fbace"/>
    <path id="Trazado_656" data-name="Trazado 656" d="M1771.523,1385.072c.972,0,1.945,0,2.917,0a.917.917,0,1,1-.014,1.819q-2.9,0-5.8,0a.931.931,0,0,1-1.048-.9c-.007-.553.412-.92,1.062-.922C1769.6,1385.07,1770.563,1385.072,1771.523,1385.072Z" transform="translate(-183.038 -118.431)" fill="#9fbace"/>
    <path id="Trazado_657" data-name="Trazado 657" d="M1771.5,1482.717c-.96,0-1.919,0-2.879,0a.917.917,0,1,1,0-1.819q2.917,0,5.834,0a.915.915,0,1,1,0,1.819C1773.468,1482.721,1772.483,1482.717,1771.5,1482.717Z" transform="translate(-183.039 -204.541)" fill="#9fbace"/>
    <path id="Trazado_658" data-name="Trazado 658" d="M1782.875,1434.8c-.758,0-1.515,0-2.273,0a.917.917,0,1,1-.012-1.819q2.31-.005,4.621,0a.915.915,0,1,1,.012,1.819C1784.441,1434.806,1783.658,1434.8,1782.875,1434.8Z" transform="translate(-193.804 -161.483)" fill="#9fbace"/>
    <path id="Trazado_659" data-name="Trazado 659" d="M1710.385,1338.969c-.568,0-1.136.005-1.7,0a.913.913,0,1,1,.014-1.818q1.723-.008,3.445,0a.915.915,0,1,1-.014,1.819C1711.547,1338.973,1710.966,1338.97,1710.385,1338.969Z" transform="translate(-129.22 -75.365)" fill="#9fbace"/>
    <path id="Trazado_660" data-name="Trazado 660" d="M1634.109,1411.784c0,.556-.007,1.112,0,1.668a1.167,1.167,0,0,1-.4.937c-.589.536-1.159,1.091-1.742,1.633-.429.4-.805.417-1.169.072a.887.887,0,0,1-.033-1.289c.414-.443.868-.848,1.273-1.3a1,1,0,0,0,.241-.588c.026-.871.011-1.743.012-2.615,0-.126,0-.253.01-.379a.9.9,0,0,1,.921-.866.876.876,0,0,1,.875.869c.025.618.006,1.238.006,1.857Z" transform="translate(-59.855 -139.987)" fill="#9fbace"/>
  </g>
</svg>
