<svg xmlns="http://www.w3.org/2000/svg" width="28.934" height="33.552" viewBox="0 0 28.934 33.552">
  <g id="Grupo_519" data-name="Grupo 519" transform="translate(-1584.888 -1250.32)">
    <path id="Trazado_634" data-name="Trazado 634" d="M1587.2,1265.387q0,4.519,0,9.039a3.481,3.481,0,0,0,3.679,3.667q4.158,0,8.316,0a1.185,1.185,0,0,1,1.227.817,1.167,1.167,0,0,1-1.012,1.491c-.1.009-.193.005-.289.005q-4.176,0-8.352,0a5.779,5.779,0,0,1-5.883-5.885q-.005-9.166,0-18.332a5.775,5.775,0,0,1,5.864-5.866q6.87-.008,13.74,0a5.775,5.775,0,0,1,5.85,5.844q.01,5.17,0,10.341a1.157,1.157,0,0,1-2.285.323,2.274,2.274,0,0,1-.027-.467c0-3.4,0-6.8,0-10.2a3.444,3.444,0,0,0-2.6-3.411,3.869,3.869,0,0,0-.964-.115q-6.852-.011-13.7,0a3.463,3.463,0,0,0-3.562,3.564Q1587.2,1260.795,1587.2,1265.387Z" fill="#9fbace"/>
    <path id="Trazado_635" data-name="Trazado 635" d="M1763.933,1459.719a5.9,5.9,0,0,1,5.386-5.82,5.779,5.779,0,0,1,6.149,4.753,7.5,7.5,0,0,1-1.3,5.524,10.864,10.864,0,0,1-3.7,3.383,1.25,1.25,0,0,1-1.363.005,9.776,9.776,0,0,1-4.844-5.893A19.52,19.52,0,0,1,1763.933,1459.719Zm9.316.226a3.511,3.511,0,0,0-4.72-3.512,3.585,3.585,0,0,0-2.117,4.3,7.175,7.175,0,0,0,3.21,4.415.367.367,0,0,0,.337-.014,11.71,11.71,0,0,0,1.1-.879A6.219,6.219,0,0,0,1773.249,1459.946Z" transform="translate(-161.746 -183.891)" fill="#9fbace"/>
    <path id="Trazado_636" data-name="Trazado 636" d="M1635.462,1306.862c.644-.619,1.268-1.218,1.89-1.818.122-.117.237-.24.356-.359a1.161,1.161,0,1,1,1.637,1.634q-1.073,1.1-2.153,2.19c-.287.292-.57.588-.865.873a1.149,1.149,0,0,1-1.752-.05q-.7-.754-1.387-1.522a1.16,1.16,0,0,1,.016-1.7,1.174,1.174,0,0,1,1.7.152C1635.1,1306.466,1635.293,1306.678,1635.462,1306.862Z" transform="translate(-43.304 -48.732)" fill="#9fbace"/>
    <path id="Trazado_637" data-name="Trazado 637" d="M1635.406,1378.7c.773-.746,1.53-1.466,2.277-2.2a1.173,1.173,0,0,1,1.113-.368,1.135,1.135,0,0,1,.638,1.866c-1.053,1.125-2.144,2.216-3.241,3.3a1.093,1.093,0,0,1-1.591-.047q-.8-.832-1.555-1.711a1.127,1.127,0,0,1,.108-1.592,1.149,1.149,0,0,1,1.6.052C1634.992,1378.238,1635.211,1378.493,1635.406,1378.7Z" transform="translate(-43.254 -113.638)" fill="#9fbace"/>
    <path id="Trazado_638" data-name="Trazado 638" d="M1635.446,1450.6c.794-.769,1.554-1.508,2.318-2.242a1.151,1.151,0,0,1,1.949.513,1.072,1.072,0,0,1-.273,1.071c-1.05,1.079-2.1,2.157-3.171,3.217a1.119,1.119,0,0,1-1.672-.054q-.744-.788-1.459-1.6a1.149,1.149,0,0,1,.044-1.651,1.163,1.163,0,0,1,1.677.109C1635.065,1450.181,1635.263,1450.4,1635.446,1450.6Z" transform="translate(-43.291 -178.59)" fill="#9fbace"/>
    <path id="Trazado_639" data-name="Trazado 639" d="M1720.674,1324.514c-.9,0-1.808,0-2.711,0a1.164,1.164,0,1,1-.019-2.313q2.766,0,5.531,0a1.164,1.164,0,1,1-.017,2.313C1722.53,1324.516,1721.6,1324.514,1720.674,1324.514Z" transform="translate(-119.042 -64.934)" fill="#9fbace"/>
    <path id="Trazado_640" data-name="Trazado 640" d="M1720.723,1396.372c-.928,0-1.855,0-2.783,0a1.162,1.162,0,1,1-.01-2.313q2.784,0,5.567,0a1.16,1.16,0,1,1,.01,2.313C1722.579,1396.375,1721.651,1396.372,1720.723,1396.372Z" transform="translate(-119.041 -129.85)" fill="#9fbace"/>
    <path id="Trazado_641" data-name="Trazado 641" d="M1718.168,1465.773a4.138,4.138,0,0,1,.608.055,1.153,1.153,0,0,1-.212,2.269,7.617,7.617,0,0,1-.794,0,1.155,1.155,0,0,1,0-2.307c.132-.007.265,0,.4,0Z" transform="translate(-119.042 -194.637)" fill="#9fbace"/>
    <path id="Trazado_642" data-name="Trazado 642" d="M1813.624,1504.176a1.156,1.156,0,1,1,1.163-1.141A1.165,1.165,0,0,1,1813.624,1504.176Z" transform="translate(-205.598 -227.24)" fill="#9fbace"/>
  </g>
</svg>
