<svg xmlns="http://www.w3.org/2000/svg" width="49.237" height="61.394" viewBox="0 0 49.237 61.394">
  <g id="Grupo_525" data-name="Grupo 525" transform="translate(-193.033 -23.181)">
    <path id="Trazado_9" data-name="Trazado 9" d="M1022.26,464.884l43.8-18.421v5.662a8.861,8.861,0,0,1-5.435,8l-43.8,18.421v-5.663a8.861,8.861,0,0,1,5.436-8" transform="translate(-823.791 -423.282)" fill="#ff7100"/>
    <path id="Trazado_10" data-name="Trazado 10" d="M1022.26,503.756l27.806-11.694v5.663a8.86,8.86,0,0,1-5.436,8l-27.807,11.694v-5.663a8.861,8.861,0,0,1,5.436-8" transform="translate(-823.791 -447.485)" fill="#ff7100"/>
    <path id="Trazado_11" data-name="Trazado 11" d="M1022.26,542.493l11.97-5.034v5.662a8.86,8.86,0,0,1-5.436,8l-11.971,5.034v-5.663a8.861,8.861,0,0,1,5.436-8" transform="translate(-823.791 -471.581)" fill="#ff7100"/>
  </g>
</svg>
