<svg id="Grupo_177" data-name="Grupo 177" xmlns="http://www.w3.org/2000/svg" width="66" height="50" viewBox="0 0 66 50">
  <g id="Grupo_209" data-name="Grupo 209" transform="translate(0)">
    <path id="Rectángulo_126" data-name="Rectángulo 126" d="M0,0H60a6,6,0,0,1,6,6V44a6,6,0,0,1-6,6H0a0,0,0,0,1,0,0V0A0,0,0,0,1,0,0Z" transform="translate(0 0)" fill="#b8cbd9"/>
    <g id="Grupo_18" data-name="Grupo 18" transform="translate(21.092 13.491)">
      <path id="Trazado_51" data-name="Trazado 51" d="M16.55,17.907a10.08,10.08,0,1,1,1.4-1.4c.074.079.149.164.229.243q2.848,2.848,5.7,5.694a1.07,1.07,0,0,1,.368.99,1.01,1.01,0,0,1-1.624.605,3.051,3.051,0,0,1-.251-.24q-2.8-2.8-5.606-5.607A2.866,2.866,0,0,1,16.55,17.907ZM10.123,2.021A8.087,8.087,0,1,0,18.2,10.137,8.1,8.1,0,0,0,10.123,2.021Z" transform="translate(0 0.002)" fill="#0a416e"/>
    </g>
  </g>
</svg>
