<svg xmlns="http://www.w3.org/2000/svg" width="19.937" height="11.867" viewBox="0 0 19.937 11.867">
  <g id="Grupo_156" data-name="Grupo 156" transform="translate(-811.986 -643.764)">
    <path id="Trazado_220" data-name="Trazado 220" d="M811.986,649.542c.207-.3.393-.623.625-.906a14,14,0,0,1,4.489-3.693,10.657,10.657,0,0,1,3.835-1.13,10.778,10.778,0,0,1,7.179,1.9,15.155,15.155,0,0,1,3.618,3.475.782.782,0,0,1,0,1.021,14.82,14.82,0,0,1-4.26,3.878,10.862,10.862,0,0,1-4.519,1.5,10.649,10.649,0,0,1-6.569-1.525,14.757,14.757,0,0,1-4.22-3.865,2.317,2.317,0,0,1-.18-.339Zm9.831-4.03a4.188,4.188,0,1,0,4.325,4.057A4.195,4.195,0,0,0,821.817,645.512Z" fill="#d5dfe8"/>
    <path id="Trazado_221" data-name="Trazado 221" d="M967.513,718a2.256,2.256,0,1,1-2.2-2.262A2.252,2.252,0,0,1,967.513,718Z" transform="translate(-143.303 -68.301)" fill="#d5dfe8"/>
  </g>
</svg>
