<svg xmlns="http://www.w3.org/2000/svg" width="42.248" height="52.755" viewBox="0 0 42.248 52.755">
  <g id="Grupo_595" data-name="Grupo 595" transform="translate(-1600.806 -1258.322)">
    <path id="Trazado_676" data-name="Trazado 676" d="M1600.807,1284.669q0-10.387,0-20.774a5.169,5.169,0,0,1,3.2-5.116,5.647,5.647,0,0,1,2.216-.435q10.265-.048,20.53,0a1.254,1.254,0,0,1,.8.335q7.606,7.565,15.175,15.167a1.172,1.172,0,0,1,.314.747q.023,15.549,0,31.1a5.207,5.207,0,0,1-5.4,5.38q-15.707.022-31.414,0a5.248,5.248,0,0,1-5.414-5.562Q1600.8,1295.087,1600.807,1284.669Zm23.8-20.817v12.878h12.88Zm-6.779,36.766a39.153,39.153,0,0,0,4.082-.023c3.175-.34,4.752-1.775,5.145-4.63.433-3.144-1.139-5.478-4.232-5.824a41.931,41.931,0,0,0-4.5-.012c-.416,0-.509.183-.505.567.017,1.834.008,3.668.007,5.5Zm-6.731-3.622a21.883,21.883,0,0,0,3-.529,3.133,3.133,0,0,0,2.172-3.529,2.9,2.9,0,0,0-2.682-2.773c-1.417-.159-2.867-.025-4.3-.043-.479-.006-.567.212-.564.642.016,3.068.008,6.136.01,9.2,0,.18.021.36.033.55h2.335Zm23.993-4.99v-1.922h-6.344v10.444h2.355v-4.192h3.717v-1.947h-3.694v-2.384Z" fill="#008fff"/>
    <path id="Trazado_677" data-name="Trazado 677" d="M1718.387,1467.95c1.614.115,3.062-.024,3.911-1.573a4.384,4.384,0,0,0-.279-4.389,3.546,3.546,0,0,0-3.632-.853Z" transform="translate(-98.158 -169.164)" fill="#008fff"/>
    <path id="Trazado_678" data-name="Trazado 678" d="M1663.05,1464.406a12.143,12.143,0,0,0,2-.39,1.406,1.406,0,0,0,.82-1.575,1.253,1.253,0,0,0-.946-1.231,5.7,5.7,0,0,0-1.518-.109.518.518,0,0,0-.342.373C1663.035,1462.375,1663.05,1463.279,1663.05,1464.406Z" transform="translate(-51.958 -169.277)" fill="#008fff"/>
    <path id="Trazado_679" data-name="Trazado 679" d="M1718.387,1467.95v-6.814a3.546,3.546,0,0,1,3.632.853,4.384,4.384,0,0,1,.279,4.389C1721.449,1467.926,1720,1468.064,1718.387,1467.95Z" transform="translate(-98.158 -169.164)" fill="#008fff"/>
    <path id="Trazado_680" data-name="Trazado 680" d="M1663.05,1464.406c0-1.127-.015-2.031.016-2.932a.518.518,0,0,1,.342-.373,5.7,5.7,0,0,1,1.518.109,1.253,1.253,0,0,1,.946,1.231,1.406,1.406,0,0,1-.82,1.575A12.143,12.143,0,0,1,1663.05,1464.406Z" transform="translate(-51.958 -169.277)" fill="#008fff"/>
  </g>
</svg>
