<svg xmlns="http://www.w3.org/2000/svg" width="26" height="25.862" viewBox="0 0 26 25.862">
  <g id="Grupo_537" data-name="Grupo 537" transform="translate(-1524 -1214.122)">
    <path id="Trazado_661" data-name="Trazado 661" d="M1524,1216.967c.065-.234.115-.472.2-.7a3.175,3.175,0,0,1,2.976-2.137c3.249-.014,6.5-.008,9.747,0a1.072,1.072,0,1,1,0,2.142c-1.354.011-2.708,0-4.061,0q-2.729,0-5.458,0a1.071,1.071,0,0,0-1.06.509,1.8,1.8,0,0,0-.176.8q-.016,6.245-.008,12.49,0,3.255,0,6.511a1.2,1.2,0,0,0,.371.982,1.282,1.282,0,0,0,.9.273q4.645,0,9.29,0a2.42,2.42,0,0,1,.48.028,1.073,1.073,0,0,1-.153,2.113c-.068.005-.135.006-.2.006q-4.772,0-9.544,0a3.218,3.218,0,0,1-3.22-2.528c-.025-.1-.054-.209-.08-.313Z" transform="translate(0 0)" fill="#9fbace"/>
    <path id="Trazado_662" data-name="Trazado 662" d="M1677.474,1306.807a5.636,5.636,0,0,1-.565.791c-2.05,2.039-4.122,4.056-6.167,6.1a1.1,1.1,0,1,1-1.521-1.551c1.45-1.395,2.871-2.82,4.308-4.228a.922.922,0,0,1,.246-.125l-.089-.116h-12.353a1.089,1.089,0,0,1-1.2-.865,1.067,1.067,0,0,1,.956-1.272c.118-.009.237-.007.355-.007h12.3c-.1-.11-.166-.181-.233-.247q-2.168-2.136-4.337-4.271a1.131,1.131,0,0,1-.4-1.11,1.07,1.07,0,0,1,1.7-.615,2.631,2.631,0,0,1,.245.22q3.144,3.1,6.283,6.2a4.7,4.7,0,0,1,.464.644Z" transform="translate(-127.474 -79.551)" fill="#9fbace"/>
  </g>
</svg>
