<svg xmlns="http://www.w3.org/2000/svg" width="62.667" height="76.613" viewBox="0 0 62.667 76.613">
  <g id="Grupo_522" data-name="Grupo 522" transform="translate(-1584.901 -1242.33)">
    <path id="Trazado_643" data-name="Trazado 643" d="M1600.569,1251.055c0-1.143-.008-2.2,0-3.249a1.741,1.741,0,0,1,1.954-1.969c2.339-.015,4.678.015,7.016-.027a1.409,1.409,0,0,0,.974-.5,6.933,6.933,0,0,1,11.4.009,1.136,1.136,0,0,0,1.079.519q3.426-.025,6.853,0c1.42.006,2.041.633,2.053,2.037.008.979.009,1.958.017,2.936a1.12,1.12,0,0,0,.095.246h.833c2.774,0,5.548-.008,8.322,0a6.05,6.05,0,0,1,6.4,6.393q.007,27.535,0,55.07a6.088,6.088,0,0,1-6.4,6.417q-24.924.015-49.849,0a6.1,6.1,0,0,1-6.413-6.4q-.006-27.535,0-55.07a6.057,6.057,0,0,1,6.383-6.407c2.774-.011,5.548,0,8.322,0Zm0,3.468h-8.95c-2.335,0-3.248.918-3.248,3.268q0,27.164,0,54.328c0,2.421.883,3.314,3.274,3.314h49.189c.272,0,.545.005.816-.012A2.509,2.509,0,0,0,1644,1313.4a5.5,5.5,0,0,0,.094-1.133q.007-27.286,0-54.573c0-.163,0-.327,0-.489a2.626,2.626,0,0,0-2.771-2.682c-2.909-.011-5.819,0-8.728,0-.21,0-.419.019-.7.032,0,1.108.009,2.162,0,3.216a1.763,1.763,0,0,1-1.967,1.969q-13.7.009-27.409,0a1.766,1.766,0,0,1-1.952-1.984C1600.561,1256.7,1600.569,1255.651,1600.569,1254.522Zm3.508,1.692h24.3V1249.3c-2.368,0-4.677-.009-6.986,0a1.867,1.867,0,0,1-1.913-1.225,3.469,3.469,0,0,0-6.482,0,1.869,1.869,0,0,1-1.913,1.227c-2.04-.013-4.079,0-6.118,0h-.886Z" transform="translate(0 0)" fill="#ff7100"/>
    <path id="Trazado_644" data-name="Trazado 644" d="M1665.618,1362.495q0,11.015,0,22.03c0,1.806-.533,2.34-2.325,2.34h-44.06c-1.793,0-2.325-.533-2.325-2.34q0-22.03,0-44.06c0-1.8.547-2.351,2.325-2.351q22.03,0,44.06,0c1.778,0,2.325.554,2.325,2.352Q1665.619,1351.48,1665.618,1362.495Zm-3.516,20.863v-41.672h-41.677v41.672Z" transform="translate(-25.027 -74.9)" fill="#ff7100"/>
    <path id="Trazado_645" data-name="Trazado 645" d="M1664.832,1400a13.906,13.906,0,1,1,13.82,13.906A13.924,13.924,0,0,1,1664.832,1400Zm3.465-.1a10.442,10.442,0,1,0,10.413-10.351A10.467,10.467,0,0,0,1668.3,1399.9Z" transform="translate(-62.505 -112.383)" fill="#ff7100"/>
    <path id="Trazado_646" data-name="Trazado 646" d="M1701.833,1432.327c1.9-1.9,3.7-3.711,5.513-5.5a2.771,2.771,0,0,1,1.056-.715,1.589,1.589,0,0,1,1.863.659,1.661,1.661,0,0,1,.006,1.982,3.18,3.18,0,0,1-.429.488q-3.223,3.229-6.452,6.452c-1.054,1.05-1.944,1.04-3.01-.019-1.021-1.014-2.044-2.027-3.052-3.054a1.746,1.746,0,1,1,2.454-2.456C1700.471,1430.853,1701.124,1431.577,1701.833,1432.327Z" transform="translate(-87.395 -143.653)" fill="#ff7100"/>
  </g>
</svg>
