<svg xmlns="http://www.w3.org/2000/svg" width="80.422" height="73.562" viewBox="0 0 80.422 73.562">
  <g id="Grupo_701" data-name="Grupo 701" transform="translate(-1535 -1239.255)">
    <path id="Trazado_743" data-name="Trazado 743" d="M1535,1297.252c.4-3.659,2.339-6.662,4.129-9.732,1.515-2.6,3.013-5.208,4.518-7.812q9.479-16.411,18.953-32.825a14.459,14.459,0,0,1,10.181-7.4c5.176-1.01,11.28,1.358,14.056,5.837,2.976,4.8,5.742,9.731,8.572,14.621q8.942,15.453,17.859,30.919a14.377,14.377,0,0,1-12.447,21.942c-7.594.024-15.188.006-22.782.006q-14.18,0-28.36,0a14.075,14.075,0,0,1-11.369-5.21,14.346,14.346,0,0,1-3.171-7.234c-.029-.2-.092-.4-.138-.6Zm40.149,9.072q12.683,0,25.367,0a8.191,8.191,0,0,0,5.538-1.826,7.861,7.861,0,0,0,1.621-10.346q-11.469-19.876-22.946-39.746c-1.02-1.766-1.972-3.58-3.111-5.267a7.327,7.327,0,0,0-7.088-3.331,7.792,7.792,0,0,0-6.326,4.313q-12.65,21.957-25.343,43.889a12.8,12.8,0,0,0-.624,1.177,7.578,7.578,0,0,0,.5,7.493,7.728,7.728,0,0,0,7.046,3.645Q1562.465,1306.317,1575.149,1306.324Z" fill="red"/>
    <path id="Trazado_744" data-name="Trazado 744" d="M1717.152,1353.156q-.481,8.263-.96,16.526a21.29,21.29,0,0,1-.133,2.265,3.014,3.014,0,0,1-3.045,2.527,2.891,2.891,0,0,1-2.95-2.516c-.234-2.076-.309-4.17-.439-6.256-.26-4.176-.493-8.353-.772-12.528-.235-3.519,2.9-6.007,5.9-4.617C1716.7,1349.459,1717.276,1351.14,1717.152,1353.156Z" transform="translate(-137.836 -86.353)" fill="red"/>
    <path id="Trazado_745" data-name="Trazado 745" d="M1713.51,1497.154a4.116,4.116,0,0,1-.053-8.233,4.117,4.117,0,0,1,.053,8.233Z" transform="translate(-138.261 -197.959)" fill="red"/>
  </g>
</svg>
