<svg xmlns="http://www.w3.org/2000/svg" width="33.968" height="33.968" viewBox="0 0 33.968 33.968">
  <g id="Grupo_535" data-name="Grupo 535" transform="translate(-1635.009 -1323.654)">
    <path id="Trazado_651" data-name="Trazado 651" d="M1654.514,1357.622h-5.042a1.474,1.474,0,0,1-1.068-1.655c.031-.547.006-1.1.006-1.557l-3.623-1.5c.061-.034.038-.027.024-.012-.424.421-.845.843-1.27,1.262a1.333,1.333,0,0,1-2.044,0q-1.517-1.508-3.025-3.026a1.33,1.33,0,0,1,0-2.043c.436-.438.877-.871,1.252-1.243l-1.5-3.628c-.475,0-1.017-.024-1.557.006a1.472,1.472,0,0,1-1.656-1.067v-5.042a1.47,1.47,0,0,1,1.653-1.067c.547.031,1.1.006,1.551.006l1.512-3.641c-.376-.369-.8-.783-1.226-1.2a1.339,1.339,0,0,1-.007-2.088q1.485-1.49,2.975-2.976a1.347,1.347,0,0,1,2.113.011c.422.42.84.843,1.2,1.2l3.635-1.508c0-.463.024-1-.006-1.542a1.47,1.47,0,0,1,1.067-1.653h5.042a1.473,1.473,0,0,1,1.067,1.656c-.03.538-.006,1.079-.006,1.533l3.64,1.51c-.056.026-.031.021-.017.007.431-.428.858-.861,1.293-1.286a1.3,1.3,0,0,1,1.924-.026q1.6,1.568,3.166,3.166a1.305,1.305,0,0,1-.022,1.925c-.385.4-.782.782-1.171,1.174a.953.953,0,0,0-.1.119l1.5,3.624c.457,0,1,.025,1.536-.006a1.473,1.473,0,0,1,1.656,1.067v5.042a1.475,1.475,0,0,1-1.657,1.068c-.538-.031-1.08-.006-1.539-.006l-1.508,3.631c-.028-.053-.022-.03-.007-.015q.607.612,1.216,1.222a1.345,1.345,0,0,1,.016,2.093q-1.5,1.505-3,3a1.337,1.337,0,0,1-2.068-.014c-.43-.428-.858-.859-1.224-1.225l-3.628,1.5c0,.472-.025,1.014.006,1.553A1.475,1.475,0,0,1,1654.514,1357.622Zm13.121-19.24h-2.279c-.561,0-.754-.147-.88-.691a12.729,12.729,0,0,0-1.557-3.78c-.309-.505-.281-.724.13-1.136l1.571-1.571-3.2-3.189c-.532.534-1.083,1.091-1.64,1.641a.677.677,0,0,1-.954.12,13.114,13.114,0,0,0-3.989-1.653.666.666,0,0,1-.589-.756c0-.663,0-1.327,0-1.99V1325h-4.511c0,.755,0,1.493,0,2.23,0,.628-.131.792-.741.939a12.664,12.664,0,0,0-3.6,1.478c-.675.408-.814.392-1.37-.167-.5-.5-.989-1-1.44-1.455l-3.209,3.206c.521.516,1.073,1.058,1.62,1.605a.69.69,0,0,1,.13,1c-.1.172-.2.342-.3.515a12.584,12.584,0,0,0-1.312,3.384.7.7,0,0,1-.785.643c-.287,0-.575,0-.862,0h-1.5v4.511h2.281c.568,0,.751.141.881.686a12.806,12.806,0,0,0,1.379,3.464c.548.944.549.945-.237,1.729-.442.442-.887.881-1.279,1.27l3.206,3.2c.528-.533,1.084-1.1,1.648-1.663a.625.625,0,0,1,.868-.137,13.7,13.7,0,0,0,4.111,1.7.63.63,0,0,1,.515.68c.008.508,0,1.017,0,1.526v.912h4.511c0-.809,0-1.593,0-2.378a.658.658,0,0,1,.556-.75,13.227,13.227,0,0,0,4.051-1.676.645.645,0,0,1,.9.126q.71.7,1.406,1.408a1.552,1.552,0,0,1,.193.276l3.238-3.239c-.49-.488-1.014-1.011-1.538-1.534-.427-.427-.453-.638-.131-1.162a12.76,12.76,0,0,0,1.542-3.716c.146-.605.31-.733.945-.734h2.226Z" fill="#d7e6f1"/>
    <path id="Trazado_652" data-name="Trazado 652" d="M1694.771,1373.772a9.727,9.727,0,1,1-5.338-8.654c.079.039.157.081.234.125a.678.678,0,0,1,.363.958c-.194.346-.546.394-.982.22a15.282,15.282,0,0,0-2.326-.837,8.349,8.349,0,1,0,6.63,9.112,8.412,8.412,0,0,0-.748-4.517c-.023-.05-.048-.1-.069-.151a.664.664,0,0,1,.3-.9.649.649,0,0,1,.89.334,8.935,8.935,0,0,1,.866,2.667C1694.677,1372.671,1694.713,1373.223,1694.771,1373.772Z" transform="translate(-33.053 -33.116)" fill="#d7e6f1"/>
    <path id="Trazado_653" data-name="Trazado 653" d="M1701.765,1394.022c1.053-1.056,2.059-2.066,3.066-3.075.47-.471.784-.469,1.261.007q1.056,1.054,2.11,2.111a.694.694,0,0,1,0,1.144q-2.929,2.934-5.863,5.863a.691.691,0,0,1-1.14,0q-2-1.991-3.987-3.986a.69.69,0,0,1-.01-1.142q1.086-1.095,2.181-2.181a.7.7,0,0,1,1.145.007C1700.935,1393.172,1701.333,1393.583,1701.765,1394.022Zm-1.756.094-1.382,1.372,3.164,3.176,5.039-5.038-1.449-1.464a1.686,1.686,0,0,1-.2.3q-1.412,1.424-2.835,2.839a.7.7,0,0,1-1.165,0C1700.779,1394.9,1700.377,1394.488,1700.009,1394.116Z" transform="translate(-50.712 -54.844)" fill="#d7e6f1"/>
    <path id="Trazado_654" data-name="Trazado 654" d="M1762.76,1380.141a.652.652,0,0,1-.649.657.662.662,0,1,1,.009-1.323A.651.651,0,0,1,1762.76,1380.141Z" transform="translate(-103.589 -45.734)" fill="#d7e6f1"/>
  </g>
</svg>
